<?xml version="1.0" encoding="utf-8"?>
<svg xmlns="http://www.w3.org/2000/svg" viewBox="0 0 500 500">
  <g transform="matrix(0.063131, 0, 0, -0.063131, 68.204232, 571.582406)" fill="#000000" stroke="none">
    <path d="M -17.56 6705 C -145.56 6670 -1050.4 6357 -1072.4 6341 C -1126.2 6302 -1125.3 6320 -1114.3 5641 C -1103.3 4962 -1103.3 4963 -1042.5 4778 C -966.58 4551 -823.52 4345 -623.56 4179 C -446.56 4031 -4.56 3750 51.44 3750 C 88.44 3750 377.44 3922 562.44 4053 C 715.44 4161 918.44 4358 990.44 4467 C 1055.44 4566 1110.44 4677 1146.44 4785 C 1202.44 4954 1206.44 5000 1213.44 5662 C 1221.44 6309 1220.44 6312 1173.44 6344 C 1143.44 6363 123.44 6706 72.44 6713 C 50.44 6717 10.44 6713 -17.56 6705 Z M 896.44 6106 C 904.44 6097 907.44 6038 905.44 5919 L 902.44 5745 L 872.44 5742 C 847.44 5740 833.44 5748 792.44 5790 L 742.44 5841 L 402.44 5495 C -3.56 5082 35.44 5103 -96.56 5227 C -140.56 5270 -198.56 5325 -225.56 5350 L -272.56 5395 L -440.56 5229 C -644.56 5027 -676.56 5000 -709.56 5000 C -743.56 5000 -812.52 5069 -812.52 5103 C -812.52 5123 -758.56 5180 -561.56 5371 C -423.56 5505 -301.56 5618 -290.56 5623 C -254.56 5636 -230.56 5620 -101.56 5499 L 23.44 5381 L 317.44 5675 L 612.44 5970 L 569.44 6013 C 527.44 6055 517.44 6083 538.44 6096 C 544.44 6099 601.44 6106 665.44 6110 C 856.44 6122 884.44 6121 896.44 6106 Z M 799.44 5413 C 816.44 5398 817.44 5370 817.44 4952 C 817.44 4552 815.44 4505 800.44 4488 C 787.44 4473 769.44 4470 697.44 4470 C 644.44 4470 606.44 4475 599.44 4482 C 582.44 4499 582.44 5401 599.44 5418 C 618.44 5437 776.44 5434 799.44 5413 Z M 375.44 5108 C 389.44 5094 392.44 4524 378.44 4502 C 357.44 4468 195.44 4462 171.44 4495 C 160.44 4510 157.44 4570 157.44 4798 C 157.44 4974 161.44 5089 167.44 5101 C 176.44 5118 189.44 5120 270.44 5120 C 329.44 5120 367.44 5116 375.44 5108 Z M -54.56 4964 C -32.56 4949 -32.56 4945 -32.56 4737 C -32.56 4473 -29.56 4480 -144.56 4480 C -267.56 4480 -262.56 4469 -262.56 4731 C -262.56 4989 -266.56 4980 -147.56 4980 C -99.56 4980 -69.56 4975 -54.56 4964 Z M -470.56 4793 C -454.56 4779 -452.56 4760 -452.56 4644 C -452.56 4480 -452.56 4480 -561.56 4480 C -607.56 4480 -643.56 4485 -650.56 4492 C -658.56 4500 -662.56 4547 -662.56 4639 C -662.56 4806 -660.56 4810 -559.56 4810 C -507.56 4810 -484.56 4806 -470.56 4793 Z" style="fill: rgb(223, 66, 60);"/>
    <path d="M 2531.44 6301 C 2474.44 6266 2465.44 6184 2514.44 6138 C 2534.44 6119 2550.44 6115 2599.44 6115 C 2654.44 6115 2661.44 6118 2688.44 6148 C 2727.44 6191 2727.44 6238 2689.44 6281 C 2652.44 6322 2579.44 6332 2531.44 6301 Z" style="fill: rgb(65, 68, 69);"/>
    <path d="M 1677.44 6275 C 1677.44 6272 1677.44 6042 1677.44 5763 L 1677.44 5255 L 1777.44 5252 L 1877.44 5249 L 1877.44 5455 L 1877.44 5660 L 2087.44 5660 L 2297.44 5660 L 2297.44 5745 L 2297.44 5830 L 2087.44 5830 L 1877.44 5830 L 1877.44 5970 L 1877.44 6110 L 2112.44 6110 L 2347.44 6110 L 2347.44 6195 L 2347.44 6280 L 2012.44 6280 C 1828.44 6280 1677.44 6278 1677.44 6275 Z" style="fill: rgb(65, 68, 69);"/>
    <path d="M 3787.44 5765 L 3787.44 5250 L 4127.44 5250 L 4467.44 5250 L 4467.44 5335 L 4467.44 5420 L 4232.44 5420 L 3997.44 5420 L 3997.44 5555 L 3997.44 5690 L 4205.44 5690 L 4412.44 5690 L 4412.44 5770 L 4412.44 5850 L 4205.44 5850 L 3997.44 5850 L 3997.44 5980 L 3997.44 6110 L 4227.44 6110 L 4457.44 6110 L 4457.44 6195 L 4457.44 6280 L 4122.44 6280 L 3787.44 6280 L 3787.44 5765 Z" style="fill: rgb(65, 68, 69);"/>
    <path d="M 3247.44 6016 C 3191.44 6004 3143.44 5982 3095.44 5948 L 3067.44 5929 L 3067.44 5969 L 3067.44 6010 L 2977.44 6010 L 2887.44 6010 L 2887.44 5630 L 2887.44 5250 L 2982.44 5250 L 3077.44 5250 L 3077.44 5514 L 3077.44 5778 L 3110.44 5806 C 3177.44 5863 3273.44 5878 3334.44 5840 C 3381.44 5812 3387.44 5776 3387.44 5498 L 3387.44 5250 L 3482.44 5250 L 3577.44 5250 L 3577.44 5533 C 3577.44 5858 3572.44 5892 3510.44 5952 C 3444.44 6016 3349.44 6040 3247.44 6016 Z" style="fill: rgb(65, 68, 69);"/>
    <path d="M 4825.44 6016 C 4764.44 6002 4649.44 5961 4642.44 5951 C 4640.44 5947 4643.44 5910 4649.44 5868 L 4660.44 5791 L 4700.44 5812 C 4814.44 5870 4940.44 5887 4998.44 5853 C 5030.44 5834 5057.44 5785 5057.44 5746 L 5057.44 5720 L 4967.44 5720 C 4825.44 5720 4715.44 5687 4660.44 5628 C 4596.44 5559 4577.44 5430 4620.44 5349 C 4655.44 5283 4718.44 5248 4812.44 5242 C 4901.44 5236 4962.44 5251 5017.44 5291 C 5039.44 5307 5059.44 5320 5061.44 5320 C 5064.44 5320 5067.44 5305 5069.44 5288 L 5072.44 5255 L 5160.44 5252 L 5248.44 5249 L 5245.44 5547 L 5242.44 5845 L 5213.44 5897 C 5197.44 5926 5168.44 5960 5148.44 5974 C 5074.44 6025 4945.44 6042 4825.44 6016 Z M 5055.44 5518 C 5052.44 5437 5052.44 5435 5018.44 5413 C 4886.44 5324 4739.44 5397 4802.44 5520 C 4822.44 5560 4922.44 5594 5030.44 5599 L 5058.44 5600 L 5055.44 5518 Z" style="fill: rgb(65, 68, 69);"/>
    <path d="M 5564.44 6004 C 5432.44 5962 5374.44 5816 5438.44 5688 C 5469.44 5627 5532.44 5593 5665.44 5565 C 5747.44 5548 5792.44 5528 5801.44 5505 C 5814.44 5470 5806.44 5438 5777.44 5408 C 5747.44 5378 5744.44 5378 5669.44 5382 C 5609.44 5386 5573.44 5395 5508.44 5423 C 5461.44 5443 5422.44 5460 5421.44 5460 C 5420.44 5460 5419.44 5422 5419.44 5376 L 5419.44 5292 L 5490.44 5269 C 5550.44 5249 5583.44 5245 5682.44 5245 C 5786.44 5245 5809.44 5248 5852.44 5268 C 5948.44 5312 5986.44 5372 5987.44 5478 C 5987.44 5557 5970.44 5597 5918.44 5642 C 5879.44 5675 5858.44 5683 5704.44 5725 C 5672.44 5734 5637.44 5750 5627.44 5760 C 5598.44 5789 5601.44 5834 5635.44 5860 C 5659.44 5880 5670.44 5882 5733.44 5877 C 5795.44 5872 5842.44 5858 5945.44 5813 C 5955.44 5809 5957.44 5825 5955.44 5885 L 5952.44 5963 L 5887.44 5988 C 5803.44 6020 5638.44 6028 5564.44 6004 Z" style="fill: rgb(65, 68, 69);"/>
    <path d="M 6337.44 6002 C 6225.44 5960 6160.44 5890 6125.44 5777 C 6108.44 5720 6105.44 5691 6109.44 5607 C 6118.44 5434 6171.44 5339 6295.44 5278 C 6360.44 5246 6365.44 5245 6487.44 5245 C 6600.44 5245 6620.44 5248 6690.44 5274 C 6732.44 5289 6769.44 5306 6772.44 5311 C 6782.44 5326 6754.44 5451 6743.44 5446 C 6605.44 5384 6513.44 5367 6432.44 5390 C 6378.44 5405 6323.44 5461 6308.44 5517 C 6286.44 5596 6267.44 5590 6548.44 5590 L 6799.44 5590 L 6795.44 5693 C 6789.44 5845 6742.44 5931 6633.44 5988 C 6590.44 6010 6567.44 6014 6482.44 6017 C 6406.44 6019 6371.44 6015 6337.44 6002 Z M 6532.44 5866 C 6573.44 5848 6594.44 5818 6606.44 5757 L 6614.44 5710 L 6461.44 5710 C 6291.44 5710 6292.44 5709 6318.44 5777 C 6350.44 5861 6446.44 5902 6532.44 5866 Z" style="fill: rgb(65, 68, 69);"/>
    <path d="M 2507.44 5630 L 2507.44 5250 L 2602.44 5250 L 2697.44 5250 L 2697.44 5630 L 2697.44 6010 L 2602.44 6010 L 2507.44 6010 L 2507.44 5630 Z" style="fill: rgb(65, 68, 69);"/>
    <path d="M 3459.44 4564 L 3462.44 4159 L 3540.44 4157 L 3617.44 4155 L 3617.44 4563 L 3617.44 4970 L 3537.44 4970 L 3457.44 4970 L 3459.44 4564 Z" style="fill: rgb(65, 68, 69);"/>
    <path d="M 6212.44 4935 C 6156.44 4880 6196.44 4790 6275.44 4790 C 6320.44 4790 6353.44 4819 6363.44 4866 C 6367.44 4890 6363.44 4903 6342.44 4928 C 6307.44 4970 6249.44 4973 6212.44 4935 Z" style="fill: rgb(65, 68, 69);"/>
    <path d="M 3081.44 4866 C 3045.44 4850 3023.44 4805 3033.44 4766 C 3048.44 4706 3129.44 4680 3180.44 4720 C 3233.44 4762 3219.44 4847 3156.44 4869 C 3117.44 4882 3119.44 4882 3081.44 4866 Z" style="fill: rgb(65, 68, 69);"/>
    <path d="M 4321.44 4710 C 4263.44 4686 4251.44 4615 4296.44 4569 C 4333.44 4532 4375.44 4531 4416.44 4566 C 4491.44 4629 4411.44 4749 4321.44 4710 Z" style="fill: rgb(65, 68, 69);"/>
    <path d="M 2444.44 4700 C 2295.44 4662 2193.44 4533 2211.44 4403 C 2223.44 4315 2268.44 4282 2413.44 4255 C 2524.44 4234 2551.44 4219 2542.44 4182 C 2524.44 4110 2451.44 4087 2264.44 4092 C 2147.44 4095 2126.44 4098 2082.44 4120 C 2012.44 4155 1995.44 4189 1995.44 4291 C 1996.44 4336 1999.44 4385 2002.44 4400 C 2008.44 4427 2007.44 4428 1946.44 4439 C 1897.44 4447 1881.44 4447 1875.44 4437 C 1859.44 4412 1844.44 4312 1843.44 4235 C 1843.44 4138 1867.44 4078 1929.44 4026 C 1997.44 3968 2070.44 3948 2242.44 3943 C 2405.44 3937 2477.44 3948 2565.44 3993 C 2685.44 4052 2751.44 4216 2692.44 4306 C 2669.44 4341 2631.44 4357 2526.44 4375 C 2400.44 4397 2383.44 4406 2379.44 4451 C 2376.44 4482 2381.44 4492 2411.44 4518 C 2434.44 4538 2462.44 4551 2493.44 4556 C 2538.44 4562 2639.44 4556 2668.44 4545 C 2679.44 4541 2687.44 4556 2700.44 4606 C 2710.44 4642 2717.44 4673 2715.44 4675 C 2680.44 4703 2518.44 4718 2444.44 4700 Z" style="fill: rgb(65, 68, 69);"/>
    <path d="M 6160.44 4669 C 6036.44 4608 5988.44 4460 6044.44 4314 C 6048.44 4302 5965.44 4300 5439.44 4300 C 5103.44 4300 4822.44 4303 4813.44 4306 C 4799.44 4311 4797.44 4334 4797.44 4461 L 4797.44 4610 L 4717.44 4610 L 4637.44 4610 L 4637.44 4400 C 4637.44 4213 4635.44 4185 4618.44 4152 C 4580.44 4078 4524.44 4050 4414.44 4050 C 4356.44 4050 4331.44 4055 4296.44 4073 C 4211.44 4118 4176.44 4236 4211.44 4353 C 4227.44 4407 4229.44 4405 4130.44 4413 L 4078.44 4417 L 4061.44 4342 C 4006.44 4093 4131.44 3920 4379.44 3903 C 4573.44 3889 4728.44 3972 4773.44 4114 L 4789.44 4165 L 5659.44 4162 L 6529.44 4160 L 6524.44 4322 C 6522.44 4419 6514.44 4501 6506.44 4523 C 6488.44 4575 6422.44 4649 6372.44 4671 C 6315.44 4697 6215.44 4696 6160.44 4669 Z M 6322.44 4528 C 6361.44 4498 6377.44 4451 6377.44 4370 L 6377.44 4300 L 6330.44 4300 C 6263.44 4300 6215.44 4316 6186.44 4346 C 6166.44 4367 6162.44 4382 6162.44 4432 C 6162.44 4487 6165.44 4494 6195.44 4521 C 6235.44 4557 6282.44 4559 6322.44 4528 Z" style="fill: rgb(65, 68, 69);"/>
    <path d="M 3047.44 4380 C 3047.44 4132 3041.44 4093 2996.44 4070 C 2974.44 4058 2909.44 4061 2875.44 4075 C 2859.44 4081 2857.44 4074 2857.44 3997 L 2857.44 3913 L 2908.44 3907 C 2964.44 3900 3043.44 3912 3084.44 3934 C 3124.44 3954 3153.44 3988 3179.44 4045 C 3201.44 4092 3202.44 4109 3205.44 4353 L 3209.44 4610 L 3128.44 4610 L 3047.44 4610 L 3047.44 4380 Z" style="fill: rgb(65, 68, 69);"/>
    <path d="M 3502.44 4076 C 3441.44 4049 3387.44 3951 3387.44 3868 L 3387.44 3840 L 3505.44 3840 L 3622.44 3840 L 3622.44 3880 L 3622.44 3920 L 3560.44 3920 C 3511.44 3920 3497.44 3923 3497.44 3935 C 3497.44 3961 3535.44 3990 3570.44 3990 C 3600.44 3990 3605.44 3994 3615.44 4026 C 3625.44 4059 3624.44 4062 3601.44 4070 C 3554.44 4088 3532.44 4090 3502.44 4076 Z" style="fill: rgb(65, 68, 69);"/>
    <path d="M 2122.44 3868 C 2081.44 3846 2066.44 3801 2083.44 3755 C 2091.44 3736 2138.44 3710 2167.44 3710 C 2198.44 3710 2247.44 3763 2247.44 3795 C 2247.44 3828 2197.44 3880 2165.44 3880 C 2152.44 3880 2133.44 3874 2122.44 3868 Z" style="fill: rgb(65, 68, 69);"/>
    <path d="M 2331.44 3870 C 2319.44 3865 2302.44 3851 2293.44 3838 C 2246.44 3771 2327.44 3685 2404.44 3722 C 2465.44 3751 2466.44 3834 2406.44 3865 C 2375.44 3882 2362.44 3883 2331.44 3870 Z" style="fill: rgb(65, 68, 69);"/>
  </g>
</svg>